<svg width="530" height="85" viewBox="0 0 530 85" fill="none" xmlns="http://www.w3.org/2000/svg">
<g clip-path="url(#clip0_54_351)">
<path d="M503.068 60.4606V23.7949H509.353V36.366H521.401C523.775 36.366 525.678 37.0818 527.11 38.5135C528.542 39.9452 529.258 41.8483 529.258 44.2229V52.6036C529.258 54.9432 528.542 56.8464 527.11 58.313C525.678 59.7447 523.775 60.4606 521.401 60.4606H503.068ZM519.306 54.6988C520.493 54.6988 521.401 54.3845 522.029 53.756C522.658 53.1274 522.972 52.2195 522.972 51.0322V45.7943C522.972 44.607 522.658 43.6991 522.029 43.0705C521.401 42.442 520.493 42.1277 519.306 42.1277H509.353V54.6988H519.306Z" fill="#0032A0"/>
<path d="M464.043 60.9844V55.2226H466.4C467.448 55.2226 468.233 54.9258 468.757 54.3321C469.316 53.7385 469.665 52.7258 469.805 51.2941L472.686 23.7949H494.685V60.4606H488.399V29.5566H478.185L476.09 52.3417C475.846 55.2051 475.008 57.3702 473.576 58.8368C472.179 60.2685 470.224 60.9844 467.71 60.9844H464.043Z" fill="#0032A0"/>
<path d="M444.12 23.7949H451.977L462.977 57.5797V60.4606H456.953L454.701 52.6036H441.397L439.144 60.4606H433.121V57.5797L444.12 23.7949ZM447.839 30.3423L443.073 46.8419H453.025L448.258 30.3423H447.839Z" fill="#0032A0"/>
<path d="M407.459 60.4606H401.173V23.7949H407.459V38.9849H421.601V23.7949H427.887V60.4606H421.601V44.7467H407.459V60.4606Z" fill="#0032A0"/>
<path d="M390.419 23.7949H396.181V26.8329L386.753 52.3417C385.635 55.3448 384.273 57.5448 382.667 58.9415C381.061 60.3034 378.931 60.9844 376.277 60.9844H372.348V55.2226H374.705C375.927 55.2226 376.923 54.9083 377.691 54.2798C378.459 53.6512 379.035 52.8655 379.419 51.9227L379.786 51.0322L368.42 26.9376V23.7949H374.181L383.086 44.4848H383.348L390.419 23.7949Z" fill="#0032A0"/>
<path d="M331.462 60.4606H324.914V57.3178L328.581 23.7949H335.652L344.923 46.8419H345.237L354.509 23.7949H361.58L365.246 57.3178V60.4606H358.699L356.604 34.2708H356.342L347.961 55.2226H342.199L333.819 34.2708H333.557L331.462 60.4606Z" fill="#0032A0"/>
<path d="M286.397 60.4606H279.849V57.3178L283.516 23.7949H290.587L299.858 46.8419H300.172L309.444 23.7949H316.515L320.181 57.3178V60.4606H313.634L311.539 34.2708H311.277L302.896 55.2226H297.134L288.754 34.2708H288.492L286.397 60.4606Z" fill="#0032A0"/>
<path d="M255.198 60.9838C252.858 60.9838 250.955 60.268 249.488 58.8362C248.057 57.3696 247.341 55.4665 247.341 53.1269V31.1275C247.341 28.7529 248.057 26.8498 249.488 25.4181C250.955 23.9864 252.858 23.2705 255.198 23.2705H266.721C269.096 23.2705 270.999 23.9864 272.431 25.4181C273.862 26.8498 274.578 28.7529 274.578 31.1275V53.1269C274.578 55.4665 273.862 57.3696 272.431 58.8362C270.999 60.268 269.096 60.9838 266.721 60.9838H255.198ZM264.626 55.2221C265.813 55.2221 266.721 54.9078 267.35 54.2792C267.978 53.6507 268.293 52.7428 268.293 51.5555V32.6988C268.293 31.5116 267.978 30.6037 267.35 29.9751C266.721 29.3466 265.813 29.0323 264.626 29.0323H257.293C256.106 29.0323 255.198 29.3466 254.569 29.9751C253.941 30.6037 253.626 31.5116 253.626 32.6988V51.5555C253.626 52.7428 253.941 53.6507 254.569 54.2792C255.198 54.9078 256.106 55.2221 257.293 55.2221H264.626Z" fill="#0032A0"/>
<path d="M222.186 60.4606H215.901V23.7949H222.186V38.9849H228.996L237.115 23.7949H242.614V26.9376L234.496 41.342L243.138 57.3178V60.4606H237.376L228.996 44.7467H222.186V60.4606Z" fill="#0032A0"/>
<path d="M175.554 60.9838C173.215 60.9838 171.312 60.268 169.845 58.8362C168.413 57.3696 167.698 55.4665 167.698 53.1269V31.1275C167.698 28.7529 168.413 26.8498 169.845 25.4181C171.312 23.9864 173.215 23.2705 175.554 23.2705H187.078C189.452 23.2705 191.356 23.9864 192.787 25.4181C194.219 26.8498 194.935 28.7529 194.935 31.1275V53.1269C194.935 55.4665 194.219 57.3696 192.787 58.8362C191.356 60.268 189.452 60.9838 187.078 60.9838H175.554ZM184.983 55.2221C186.17 55.2221 187.078 54.9078 187.707 54.2792C188.335 53.6507 188.649 52.7428 188.649 51.5555V32.6988C188.649 31.5116 188.335 30.6037 187.707 29.9751C187.078 29.3466 186.17 29.0323 184.983 29.0323H177.65C176.462 29.0323 175.554 29.3466 174.926 29.9751C174.297 30.6037 173.983 31.5116 173.983 32.6988V51.5555C173.983 52.7428 174.297 53.6507 174.926 54.2792C175.554 54.9078 176.462 55.2221 177.65 55.2221H184.983Z" fill="#0032A0"/>
<path d="M139.167 60.4606H132.881V23.7949H139.167V43.4372L138.538 49.7227H138.8L153.833 23.7949H160.118V60.4606H153.833V40.8182L154.461 34.5327H154.2L139.167 60.4606Z" fill="#0032A0"/>
<path d="M100.656 60.4606V23.7949H123.441V27.7757L121.608 29.5566H106.941V38.1992H118.203C120.577 38.1992 122.481 38.9151 123.912 40.3468C125.344 41.7785 126.06 43.6816 126.06 46.0562V52.6036C126.06 54.9432 125.344 56.8464 123.912 58.313C122.481 59.7447 120.577 60.4606 118.203 60.4606H100.656ZM116.108 54.6988C117.295 54.6988 118.203 54.3845 118.831 53.756C119.46 53.1274 119.774 52.2195 119.774 51.0322V47.6276C119.774 46.4403 119.46 45.5324 118.831 44.9038C118.203 44.2753 117.295 43.961 116.108 43.961H106.941V54.6988H116.108Z" fill="#0032A0"/>
<mask id="mask0_54_351" style="mask-type:luminance" maskUnits="userSpaceOnUse" x="0" y="0" width="78" height="85">
<path d="M77.219 0.0458984H0.549805V84.9359H77.219V0.0458984Z" fill="white"/>
</mask>
<g mask="url(#mask0_54_351)">
<path fill-rule="evenodd" clip-rule="evenodd" d="M59.2577 9.90052C59.8314 12.5812 61.1915 15.0087 61.8468 17.987C65.2005 33.2313 61.4471 48.421 44.7703 52.6919C37.1797 54.6359 33.199 52.2779 29.3808 47.6788C29.194 47.9231 29.1068 47.9446 28.8549 48.5331C26.0032 55.1929 33.2692 62.3183 38.2453 65.5099C44.949 69.8096 53.6913 71.4486 61.7578 70.0852C79.6535 67.0608 77.0921 59.786 77.0921 48.1851C77.0921 41.8604 77.0881 35.5358 77.0987 29.2112C77.1107 21.9597 75.551 19.4214 70.933 16.563C67.3456 14.3424 63.1115 11.8991 59.2577 9.90052Z" fill="#0032A0"/>
<path fill-rule="evenodd" clip-rule="evenodd" d="M0.648508 40.8742C0.778409 40.7925 0.918343 40.6742 1.01387 40.5938C1.10671 40.5156 1.2548 40.4108 1.3633 40.315L1.95768 39.7669C2.23448 39.4876 2.34431 39.3168 2.61535 38.9866C9.0388 31.1634 20.2768 23.6345 30.3024 24.5844C41.4059 25.6364 54.2228 38.2884 48.1141 48.4529C60.5107 47.735 63.541 23.2359 51.0162 8.48637C49.1607 6.30108 43.1916 0.586659 39.7768 0.103847C35.3068 -0.528264 29.038 4.17732 25.695 6.12449C21.4975 8.56945 17.3355 10.8738 13.0466 13.3517C8.15558 16.1776 3.86713 17.8346 1.8338 21.9968C-0.0907604 25.9362 0.747238 35.7436 0.648508 40.8742Z" fill="#0032A0"/>
<path fill-rule="evenodd" clip-rule="evenodd" d="M56.6114 76.0393C45.7219 75.4715 32.4679 68.2138 28.4065 60.0158C23.6819 50.4793 25.5181 32.5026 39.2382 31.4181C38.4749 29.732 35.6828 27.9728 33.1354 27.3207C23.4901 24.8518 8.65281 35.8915 3.66482 48.6157C1.73291 53.5439 0.0660051 60.7384 3.17653 64.9048C5.62617 68.1859 23.538 77.7016 28.5625 80.6043C32.7708 83.0354 37.6395 86.7683 43.8273 83.8955L56.3631 76.3256C56.4073 76.1553 56.5326 76.138 56.6114 76.0393Z" fill="#0032A0"/>
</g>
</g>
<defs>
<clipPath id="clip0_54_351">
<rect width="530" height="85" fill="white"/>
</clipPath>
</defs>
</svg>